# xmcd
# Copyright (C) 1995-1998 Ti Kan
#
# Track frame offsets:
#       150
#       15282
#       35571
#       54648
#       75504
#       95524
#       112313
#       125185
#       139596
#       155905
#       173645
#       189773
#       207476
#       223101
#       239828
#       255284
#       271829
#       287187
#       305341
#
# Disc length: 4272 seconds
#
# Revision: 18
# Processed by: cddbd v1.5.1PL0 Copyright (c) Steve Scherf et al.
# Submitted via: CD-Transfer v1.0
#
DISCID=1710ae13
DTITLE=Kapanga - Euro Express 583
DYEAR=04
DGENRE=
TTITLE0=Dicen Por Ahi
TTITLE1=Mi Nina
TTITLE2=Solo
TTITLE3=Fantasia O Realidad
TTITLE4=Vida De Mi Vida
TTITLE5=Valio La Pena
TTITLE6=Diras Que Estoy Loco
TTITLE7=Milagro
TTITLE8=Fuego (Album Vers.)
TTITLE9=Pasos De Gigante
TTITLE10=Te Exitare
TTITLE11=Chiki Chiki
TTITLE12=On The Flor (Hip-Hop Bilingual Mix)
TTITLE13=Miedo (Remix)
TTITLE14=No Lastimes Mas
TTITLE15=Autos
TTITLE16=Amor Libre
TTITLE17=Algo Esta Cambiando
TTITLE18=Deseria
EXTD=
EXTT0=
EXTT1=
EXTT2=
EXTT3=
EXTT4=
EXTT5=
EXTT6=
EXTT7=
EXTT8=
EXTT9=
EXTT10=
EXTT11=
EXTT12=
EXTT13=
EXTT14=
EXTT15=
EXTT16=
EXTT17=
EXTT18=
PLAYORDER=
